<?xml version="1.0" encoding="UTF-8" standalone="no"?>
<svg
   xmlns:dc="http://purl.org/dc/elements/1.1/"
   xmlns:cc="http://creativecommons.org/ns#"
   xmlns:rdf="http://www.w3.org/1999/02/22-rdf-syntax-ns#"
   xmlns:svg="http://www.w3.org/2000/svg"
   xmlns="http://www.w3.org/2000/svg"
   xmlns:sodipodi="http://sodipodi.sourceforge.net/DTD/sodipodi-0.dtd"
   xmlns:inkscape="http://www.inkscape.org/namespaces/inkscape"
   inkscape:export-ydpi="24"
   inkscape:export-xdpi="24"
   inkscape:export-filename="C:\Users\David\Documents\GitHub\timed-brightness\TimedBrightness\Resources\drawable\notification_icon.png"
   sodipodi:docname="icon_notification.svg"
   inkscape:version="1.0 (4035a4fb49, 2020-05-01)"
   id="svg8"
   version="1.1"
   viewBox="0 0 50.799999 50.800001"
   height="192"
   width="192">
  <defs
     id="defs2">
    <filter
       id="filter924"
       inkscape:label="Drop Shadow"
       style="color-interpolation-filters:sRGB;">
      <feFlood
         id="feFlood914"
         result="flood"
         flood-color="rgb(0,0,0)"
         flood-opacity="0.498039" />
      <feComposite
         id="feComposite916"
         result="composite1"
         operator="in"
         in2="SourceGraphic"
         in="flood" />
      <feGaussianBlur
         id="feGaussianBlur918"
         result="blur"
         stdDeviation="0.7"
         in="composite1" />
      <feOffset
         id="feOffset920"
         result="offset"
         dy="1"
         dx="0" />
      <feComposite
         id="feComposite922"
         result="composite2"
         operator="over"
         in2="offset"
         in="SourceGraphic" />
    </filter>
  </defs>
  <sodipodi:namedview
     inkscape:pagecheckerboard="true"
     inkscape:snap-page="true"
     inkscape:window-maximized="1"
     inkscape:window-y="-8"
     inkscape:window-x="1912"
     inkscape:window-height="1017"
     inkscape:window-width="1920"
     inkscape:snap-global="true"
     units="px"
     showgrid="false"
     inkscape:document-rotation="0"
     inkscape:current-layer="layer1"
     inkscape:document-units="mm"
     inkscape:cy="146.23842"
     inkscape:cx="60.654031"
     inkscape:zoom="1.979899"
     inkscape:pageshadow="2"
     inkscape:pageopacity="0.0"
     borderopacity="1.0"
     bordercolor="#666666"
     pagecolor="#ffffff"
     id="base" />
  <metadata
     id="metadata5">
    <rdf:RDF>
      <cc:Work
         rdf:about="">
        <dc:format>image/svg+xml</dc:format>
        <dc:type
           rdf:resource="http://purl.org/dc/dcmitype/StillImage" />
        <dc:title></dc:title>
      </cc:Work>
    </rdf:RDF>
  </metadata>
  <g
     id="layer1"
     inkscape:groupmode="layer"
     inkscape:label="Layer 1">
    <path
       inkscape:export-ydpi="24"
       inkscape:export-xdpi="24"
       inkscape:export-filename="C:\Users\David\Documents\GitHub\timed-brightness\TimedBrightness\Resources\drawable\path833.png"
       sodipodi:nodetypes="ccccccccccccccccccccccccccccccccccccccccccc"
       transform="scale(0.26458333)"
       d="M 83.830078,0 70.609375,20.005859 48.019531,11.964844 43.460938,35.505859 19.513672,36.722656 24.310547,60.216797 2.6503906,70.505859 16.074219,90.375 0,108.16992 l 20.005859,13.2207 -8.041015,22.58985 23.541015,4.55859 1.216797,23.94727 23.494141,-4.79688 10.289062,21.66016 L 90.375,175.92578 108.16992,192 l 13.2207,-20.00586 22.58985,8.04102 4.55859,-23.54102 23.94727,-1.2168 -4.79688,-23.49414 21.66016,-10.28906 L 175.92578,101.625 192,83.830078 171.99414,70.609375 180.03516,48.019531 156.49414,43.460938 155.27734,19.513672 131.7832,24.310547 121.49414,2.6503906 101.625,16.074219 Z M 36.378906,53.423828 c 18.270833,13.7832 36.541667,27.566394 54.8125,41.34961 2.357719,-0.902359 5.050118,-0.87422 7.392578,0.06445 12.016166,-7.522689 24.025396,-15.108984 36.039066,-22.65625 5.77341,-4.73393 16.04869,15.531757 14.93554,17.324218 l -44.6289,24.300781 c -0.9149,5.66865 -7.564442,9.40602 -12.074221,8.58789 -4.22572,-0.7545 -7.698863,-4.43909 -8.197266,-8.70312 C 66.318106,99.855584 41.978771,86.019412 23.638672,72.183594 21.352714,68.764738 31.963139,52.235632 36.378906,53.423828 Z"
       style="fill:#ffffff;fill-opacity:1;stroke:none;stroke-width:13.2486;stroke-linecap:round;stroke-linejoin:miter;stroke-miterlimit:4;stroke-dasharray:none;stroke-dashoffset:10.8064;stroke-opacity:1;paint-order:fill markers stroke"
       id="path833" />
  </g>
</svg>
